<?xml version="1.0" standalone="no"?>
<!DOCTYPE svg PUBLIC "-//W3C//DTD SVG 20010904//EN"
 "http://www.w3.org/TR/2001/REC-SVG-20010904/DTD/svg10.dtd">
<svg version="1.0" xmlns="http://www.w3.org/2000/svg"
 width="300.000000pt" height="300.000000pt" viewBox="0 0 300.000000 300.000000"
 preserveAspectRatio="xMidYMid meet">
<metadata>
Created by potrace 1.10, written by Peter Selinger 2001-2011
</metadata>
<g transform="translate(0.000000,300.000000) scale(0.100000,-0.100000)"
fill="#000000" stroke="none">
<path d="M1656 2603 c-3 -3 -6 -105 -6 -225 0 -187 2 -218 15 -218 13 0 15 31
15 219 0 200 -5 243 -24 224z"/>
<path d="M2164 2288 c-10 -16 -174 -380 -177 -392 -1 -5 3 -10 8 -12 13 -5
196 404 185 411 -5 3 -12 0 -16 -7z"/>
<path d="M1192 2178 c27 -62 68 -155 91 -206 35 -79 52 -103 60 -82 5 14 -178
400 -189 400 -8 0 5 -39 38 -112z"/>
<path d="M1442 2218 c3 -35 28 -52 28 -20 0 28 -10 52 -22 52 -5 0 -8 -14 -6
-32z"/>
<path d="M1902 2218 c-5 -18 -5 -37 -1 -42 12 -14 19 -4 26 38 7 46 -13 49
-25 4z"/>
<path d="M1523 1923 c-76 -103 -143 -193 -149 -201 -8 -12 -19 -9 -63 18 -28
18 -54 31 -56 29 -10 -11 -158 -226 -162 -236 -8 -20 -16 -16 -71 27 -27 22
-52 40 -55 40 -3 0 -47 -61 -99 -135 -53 -76 -100 -135 -109 -135 -8 0 -39
-30 -69 -66 l-53 -65 -33 32 c-19 18 -35 31 -37 28 -2 -2 -16 -25 -31 -51 -31
-53 -38 -56 -65 -29 -20 20 -9 32 -369 -410 -36 -45 -16 -34 46 24 31 29 114
103 183 165 121 106 129 111 162 105 32 -5 42 0 88 40 39 34 63 47 98 52 25 4
53 11 62 15 9 5 49 52 90 104 40 53 78 96 84 96 5 -1 26 -15 45 -31 l35 -31
-76 -71 c-55 -52 -80 -83 -89 -112 -7 -22 -39 -75 -71 -117 -33 -43 -57 -78
-54 -78 3 0 38 24 78 53 39 30 107 77 149 105 47 32 84 65 94 85 24 47 106
142 184 214 37 35 71 63 74 63 3 0 6 -12 7 -27 1 -67 10 -67 79 2 35 36 69 65
75 65 6 0 28 -14 49 -32 l39 -32 40 23 40 23 76 -76 c42 -42 79 -76 82 -76 4
0 -12 37 -34 83 -40 81 -58 107 -144 200 l-44 47 -43 -25 c-41 -24 -44 -24
-58 -8 -14 17 -8 27 73 126 l88 107 28 -50 c21 -38 34 -50 51 -50 14 0 65 -30
118 -69 90 -65 99 -75 170 -190 75 -119 76 -121 113 -121 32 0 44 -8 97 -62
33 -35 95 -103 137 -153 74 -88 328 -345 311 -314 -10 17 -147 215 -167 241
-7 9 -29 19 -47 23 -31 6 -43 18 -109 124 -58 91 -87 126 -128 156 -29 21 -53
42 -53 47 0 18 43 6 64 -19 l23 -27 28 42 c15 23 29 42 30 42 2 0 24 -34 50
-75 28 -45 53 -75 63 -75 9 0 37 -25 62 -55 l45 -54 45 44 c25 25 49 45 52 45
4 0 27 -27 52 -59 35 -45 46 -68 46 -95 0 -20 12 -65 27 -102 27 -66 27 -66
62 -60 28 4 46 -1 92 -29 31 -19 73 -53 93 -75 l36 -40 0 46 c0 41 -8 57 -67
141 -61 85 -71 94 -95 90 -25 -3 -40 10 -140 130 -80 95 -117 131 -128 127 -8
-3 -22 -8 -30 -10 -20 -5 -147 159 -160 208 -8 28 -22 43 -60 67 -28 17 -54
31 -58 31 -5 0 -21 -14 -38 -31 -16 -17 -54 -51 -85 -75 l-56 -43 -54 144
c-32 88 -59 147 -69 149 -8 2 -32 7 -53 11 -35 6 -46 17 -142 145 l-103 139
-139 -186z m202 39 c103 -139 123 -160 175 -177 l48 -16 36 -92 c19 -51 38
-101 42 -112 10 -29 45 -65 64 -65 20 0 92 46 140 88 19 18 40 32 46 32 19 0
62 -47 78 -85 18 -43 102 -150 150 -193 34 -29 34 -31 16 -47 -18 -17 -22 -15
-82 38 -35 31 -76 76 -93 101 -43 64 -65 74 -104 47 -23 -17 -39 -20 -65 -16
-35 7 -66 -12 -78 -46 -8 -23 -39 12 -107 121 -58 93 -69 105 -159 169 -53 38
-107 72 -119 75 -12 4 -36 25 -53 47 -45 56 -67 52 -132 -23 -70 -81 -113
-138 -121 -161 -4 -11 3 -28 22 -49 28 -31 31 -32 63 -20 19 6 40 12 46 12 11
0 82 -68 82 -79 0 -4 -21 -12 -46 -19 -41 -11 -48 -10 -74 8 -41 29 -69 25
-124 -19 l-49 -39 -28 20 -28 21 -38 -28 c-60 -44 -186 -177 -227 -239 -31
-46 -109 -116 -130 -116 -22 0 5 43 69 110 41 43 75 87 75 97 0 45 -97 111
-134 91 -17 -9 -17 -7 3 29 12 21 37 56 55 77 l32 39 48 -28 c64 -37 78 -30
166 94 73 105 85 112 130 86 60 -34 59 -36 288 278 24 31 48 57 55 57 7 0 34
-31 62 -68z m-959 -707 c-28 -37 -66 -63 -66 -46 0 15 79 95 86 88 4 -4 -5
-22 -20 -42z m-166 -76 c0 -23 -72 -71 -113 -75 -17 -2 -41 -7 -52 -10 -20 -7
-20 -7 0 15 12 14 26 20 39 17 24 -6 55 10 79 41 19 24 47 31 47 12z m2174
-74 c18 -14 40 -25 49 -25 19 0 53 -33 73 -73 l15 -28 -43 22 c-24 12 -54 22
-68 23 -18 1 -31 12 -47 41 -22 39 -29 65 -17 65 3 0 20 -11 38 -25z"/>
<path d="M1475 2048 c7 -52 19 -77 31 -66 3 4 1 32 -6 62 -15 72 -34 75 -25 4z"/>
<path d="M1872 2079 c-5 -13 -12 -41 -16 -63 -11 -57 14 -42 30 20 13 52 2 87
-14 43z"/>
<path d="M1000 2083 c1 -13 38 -53 49 -53 15 0 14 6 -5 35 -15 23 -44 35 -44
18z"/>
<path d="M2322 2050 c-25 -34 -27 -40 -9 -40 18 1 51 50 40 61 -6 6 -18 -2
-31 -21z"/>
<path d="M721 2018 c0 -7 55 -62 121 -123 187 -172 216 -196 222 -186 5 8
-324 321 -338 321 -3 0 -6 -6 -5 -12z"/>
<path d="M2435 1878 c-141 -132 -182 -178 -160 -178 8 0 339 309 343 321 12
31 -42 -10 -183 -143z"/>
<path d="M1096 1962 c-7 -12 56 -102 72 -102 18 0 16 5 -24 60 -38 53 -40 55
-48 42z"/>
<path d="M2213 1905 c-32 -43 -41 -65 -25 -65 8 0 82 95 82 105 0 18 -30 -2
-57 -40z"/>
<path d="M2636 1744 c-18 -10 -25 -19 -19 -25 6 -6 21 -3 41 8 54 31 34 47
-22 17z"/>
<path d="M800 1692 c0 -5 10 -14 23 -20 12 -6 36 -20 54 -32 17 -12 34 -17 37
-11 3 5 -16 23 -42 40 -49 31 -72 38 -72 23z"/>
<path d="M2477 1648 c-26 -16 -45 -34 -42 -39 7 -10 108 44 113 61 6 18 -22 9
-71 -22z"/>
<path d="M432 1620 c6 -18 306 -132 338 -128 21 3 -85 47 -329 136 -8 3 -12 0
-9 -8z"/>
<path d="M2725 1570 c-82 -32 -159 -62 -170 -66 -19 -6 -19 -7 2 -11 19 -4
101 25 331 114 6 3 12 9 12 14 0 15 -21 9 -175 -51z"/>
</g>
</svg>
